<svg width="405" height="314" viewBox="0 0 405 314" fill="none" xmlns="http://www.w3.org/2000/svg">
<path d="M343.191 26.9781C317.025 14.7354 289.047 5.838 259.796 0.771729C256.204 7.26651 252.007 16.0021 249.113 22.9513C218.019 18.2751 187.211 18.2751 156.688 22.9513C153.795 16.0021 149.503 7.26651 145.879 0.771729C116.596 5.838 88.586 14.7681 62.4196 27.0429C9.64165 106.797 -4.66557 184.571 2.48805 261.24C37.4931 287.381 71.4173 303.26 104.769 313.652C113.004 302.318 120.348 290.271 126.675 277.574C114.625 272.995 103.084 267.345 92.1789 260.785C95.0719 258.642 97.9018 256.401 100.636 254.095C167.148 285.205 239.416 285.205 305.134 254.095C307.9 256.401 310.73 258.642 313.591 260.785C302.654 267.377 291.081 273.027 279.031 277.607C285.358 290.271 292.671 302.351 300.937 313.684C334.321 303.293 368.277 287.413 403.282 261.24C411.676 172.361 388.943 95.3016 343.191 26.9781ZM135.736 214.089C115.77 214.089 99.3957 195.449 99.3957 172.75C99.3957 150.051 115.42 131.379 135.736 131.379C156.053 131.379 172.426 150.019 172.077 172.75C172.108 195.449 156.053 214.089 135.736 214.089ZM270.034 214.089C250.067 214.089 233.693 195.449 233.693 172.75C233.693 150.051 249.717 131.379 270.034 131.379C290.35 131.379 306.724 150.019 306.374 172.75C306.374 195.449 290.35 214.089 270.034 214.089Z" fill="white"/>
</svg>
