<svg width="313" height="314" viewBox="0 0 313 314" fill="none" xmlns="http://www.w3.org/2000/svg">
<path fill-rule="evenodd" clip-rule="evenodd" d="M91.834 2.69189C66.3649 3.84106 44.2896 10.0679 26.4644 27.818C8.57681 45.6613 2.42727 67.8239 1.27524 93.0282C0.559116 108.759 -3.62842 227.606 8.51456 258.773C16.7033 279.8 32.8313 295.967 54.0503 304.182C63.9515 308.033 75.2542 310.64 91.834 311.401C230.466 317.675 281.856 314.26 303.526 258.773C307.372 248.896 310.018 237.604 310.75 221.065C317.086 82.0771 309.723 51.9506 285.561 27.818C266.397 8.7013 243.855 -4.31184 91.834 2.69189ZM93.1103 283.449C77.9315 282.765 69.6962 280.236 64.2007 278.109C50.3764 272.735 39.9927 262.394 34.6529 248.651C25.4055 224.969 28.4725 112.489 29.2976 94.2887C30.1072 76.4609 33.7189 60.1675 46.2977 47.5888C61.8657 32.0594 81.9792 24.4485 218.93 30.6293C236.802 31.4368 253.133 35.0411 265.743 47.5888C281.311 63.1181 289.033 83.3865 282.743 219.812C282.058 234.953 279.521 243.169 277.388 248.651C263.299 284.757 230.886 289.769 93.1103 283.449ZM220.44 74.1435C220.44 84.424 228.801 92.7837 239.122 92.7837C249.444 92.7837 257.819 84.424 257.819 74.1435C257.819 63.8631 249.444 55.5109 239.122 55.5109C228.801 55.5109 220.44 63.8631 220.44 74.1435ZM76.0791 157.039C76.0791 201.08 111.87 236.787 156.02 236.787C200.171 236.787 235.962 201.08 235.962 157.039C235.962 112.998 200.171 77.3138 156.02 77.3138C111.87 77.3138 76.0791 112.998 76.0791 157.039ZM104.133 157.039C104.133 128.465 127.36 105.282 156.02 105.282C184.681 105.282 207.908 128.465 207.908 157.039C207.908 185.629 184.681 208.819 156.02 208.819C127.36 208.819 104.133 185.629 104.133 157.039Z" fill="white"/>
</svg>
