<svg width="1825" height="1407" viewBox="0 0 1825 1407" fill="none" xmlns="http://www.w3.org/2000/svg">
<path d="M1800.68 559.271C1797.22 558.033 1682.43 550.793 1546.79 543.243C1402.73 535.261 1278.47 529.258 1174.26 525.298C1260.09 387.736 1319.99 292.625 1353.72 240.15C1390.6 182.91 1435.71 118.492 1489.05 46.896L1461.7 24C1380.45 62.8613 1310.96 89.7795 1253.35 104.755C1195.67 119.73 1136.95 127.156 1077.23 127.156C1017.52 127.156 955.451 119.359 896.602 103.826C837.754 88.2944 770.675 61.6855 695.366 24L468.138 289.965L498.831 317.254L611.207 182.972C660.898 210.138 704.214 228.579 741.343 238.232C791.59 250.918 846.603 257.229 906.442 257.229C981.813 257.229 1053.28 248.566 1120.92 231.239C1188.49 213.913 1266.9 183.158 1356.01 138.975C1247.22 241.821 1160.9 327.279 1096.97 395.41C1061.21 433.467 1027.29 474.989 995.179 519.914C959.907 519.295 928.842 519.048 901.986 519.234C884.04 519.357 848.954 520.409 848.273 520.904C847.902 521.152 848.83 526.412 850.192 532.847C851.615 539.159 853.595 553.825 854.709 565.521C857.618 596.214 857.37 616.572 853.41 650.05C852.419 658.961 851.801 666.263 851.986 666.263C853.348 666.51 873.335 665.953 891.219 665.149C893.694 665.025 896.293 664.901 898.892 664.84L862.135 720.842C625.811 722.018 468.634 723.565 307.743 726.04C221.914 727.339 200.441 730.681 97.4715 758.032C75.9988 763.663 50.1943 770.347 40.1077 772.698C29.8973 775.173 20.9244 777.463 20.1818 777.834C16.2833 779.814 21.6672 781.547 40.5409 784.394C51.8032 786.126 80.6397 790.891 104.711 795.099C177.112 807.723 221.543 813.416 255.701 814.468C267.891 814.839 397.161 815.582 459.042 815.582C561.641 815.582 666.467 815.148 800.996 814.158C697.903 971.212 624.698 1080.18 581.69 1140.7C537.136 1203.39 479.834 1273.62 409.909 1351.22L433.671 1383.09C518.509 1346.64 594.685 1320.47 662.259 1304.57C729.771 1288.72 800.006 1280.8 872.902 1280.8C945.798 1280.8 1014.24 1288.6 1076.37 1304.13C1138.5 1319.66 1208.11 1346.03 1285.22 1383.09L1489.11 1134.15L1462.19 1108.03L1364.73 1224.24C1310.96 1197.08 1261.82 1177.71 1217.33 1166.2C1172.78 1154.69 1124.57 1148.93 1072.59 1148.93C914.238 1148.93 746.356 1187.18 568.943 1263.54C731.566 1110.51 835.712 1009.21 881.442 959.579C923.15 914.282 961.021 865.272 995.117 812.488C1021.79 812.24 1049.51 811.993 1078.53 811.683C1156.01 810.941 1157.43 811.002 1162.63 813.663C1165.6 815.272 1170.86 818.428 1174.51 820.718L1181.07 824.988L1195.92 821.027C1212.32 816.696 1224.88 814.097 1241.77 811.745C1251.99 810.26 1252.98 810.384 1254.09 812.426C1254.77 813.725 1259.29 821.027 1264.11 828.7C1274.14 844.48 1276.37 849.307 1277.36 856.671C1277.73 859.517 1278.41 862.178 1278.78 862.487C1279.71 863.354 1279.65 883.341 1278.66 894.728C1277.98 902.463 1275.38 917.067 1274.45 918.119C1274.32 918.242 1273.64 917.685 1273.15 916.695C1271.48 913.849 1262.2 911.374 1256.01 912.054C1250.62 912.673 1244.93 915.334 1242.21 918.428C1236.64 924.616 1235.77 938.477 1240.41 950.111C1248.95 971.893 1268.88 981.918 1288.25 974.121C1296.6 970.717 1300.87 967.066 1304.65 959.393C1310.71 947.388 1311.02 929.133 1305.7 887.921C1304.03 875.111 1302.91 864.282 1303.28 863.911C1303.53 863.478 1303.72 857.475 1303.59 850.483C1302.97 819.418 1303.66 809.146 1306.5 807.475C1307.55 806.918 1310.21 806.918 1312.44 807.475C1314.67 808.032 1317.39 808.032 1318.38 807.475C1319.31 806.856 1323.02 805.866 1326.55 805.186C1331.94 804.072 1333.3 804.196 1335.59 806.114C1338.99 809.022 1345.86 808.898 1352.29 805.928C1357.49 803.515 1365.35 803.267 1413.8 803.7C1438.49 803.886 1498.15 805.743 1507.62 806.547C1509.97 806.795 1514.42 808.156 1517.45 809.641C1528.72 815.087 1536.33 815.52 1539.3 810.817C1540.72 808.775 1541.9 808.527 1547.9 808.837C1552.36 809.084 1555.51 809.827 1556.87 811.002C1559.16 813.045 1561.08 813.045 1564.3 810.879C1569.43 807.351 1581.69 809.455 1599.76 816.881C1622.59 826.287 1635.71 829.01 1656.01 828.329C1674.26 827.71 1688.74 819.913 1697.78 805.619C1713 781.733 1711.7 741.263 1694.93 718.552C1682.99 702.339 1668.82 696.028 1646.79 697.327C1631.87 698.193 1618.2 701.473 1599.14 708.899C1587.07 713.602 1582.55 714.778 1574.82 715.396C1567.14 715.953 1564.92 715.706 1563.12 714.097C1561.2 712.364 1560.21 712.302 1557.68 713.602C1556.01 714.406 1551.06 715.396 1546.79 715.644C1540.16 716.077 1538.74 715.891 1537.38 713.973C1533.85 709.332 1525.38 709.703 1515.66 715.025C1511.45 717.377 1507.31 717.933 1480.88 719.233C1448.52 720.842 1434.16 721.275 1400.75 721.461C1365.1 721.832 1357.93 721.646 1356.87 720.656C1355.08 719.047 1345.49 716.572 1342.58 716.881C1341.03 717.129 1338.62 718.119 1337.13 719.233C1335.09 720.718 1332.86 721.028 1327.73 720.347C1324.08 719.852 1320.12 718.738 1319.13 717.81C1317.7 716.386 1316.22 716.448 1313.19 717.438C1310.9 718.181 1307.93 718.428 1306.56 717.995C1304.15 717.315 1303.97 716.448 1303.22 706.857C1302.85 701.164 1302.6 688.973 1302.79 679.877C1303.04 670.656 1302.91 662.983 1302.6 662.674C1302.29 662.364 1303.28 651.721 1304.77 639.035C1305.14 635.879 1305.45 632.909 1305.82 630.062C1433.42 616.882 1581.44 600.421 1744.31 581.176C1773.89 577.711 1799.76 574.06 1801.67 573.256C1804.52 571.956 1805.32 571.09 1806.01 568.12C1806.93 563.602 1805.32 560.632 1800.93 559.023L1800.68 559.271ZM1277.85 663.478C1277.48 663.911 1276.98 666.387 1276.61 669.171C1276.43 671.894 1275.31 676.102 1274.2 678.577C1272.65 682.228 1260.03 703.144 1251.98 715.52C1250.44 717.995 1249.82 717.933 1236.58 715.953C1220.49 713.416 1207.06 710.508 1191.71 706.485C1181.25 703.639 1180.51 703.639 1177.29 705.805C1175.38 707.042 1169.31 710.755 1163.74 713.911L1153.53 719.79L1053.29 720.223C1068.76 696.894 1083.3 673.689 1096.91 650.607C1150.44 645.842 1210.59 640.087 1276.74 633.342C1277.91 646.028 1278.66 662.674 1277.91 663.54L1277.85 663.478Z" fill="#446A71" stroke="#BCB2AA" stroke-width="37.1286" stroke-miterlimit="10"/>
<path d="M553.967 643.243C554.215 644.543 586.022 647.389 652.853 651.907C723.026 656.672 764.734 659.951 797.531 663.417C826.863 666.511 825.749 666.511 826.244 662.983C826.367 661.436 827.234 654.32 828.224 647.142C833.236 606.981 831.813 565.583 824.016 532.6C822.84 527.588 821.788 523.38 821.603 523.132C821.417 522.885 815.415 523.566 808.298 524.803C767.705 531.486 729.029 536.808 652.977 546.276C589.054 554.197 552.482 559.333 552.358 560.509C552.358 560.756 553.411 563.726 554.834 567.192C562.198 586.313 562.878 614.593 556.257 634.58C554.896 638.85 553.844 642.81 553.967 643.305V643.243Z" fill="#446A71" stroke="#BCB2AA" stroke-width="37.1286" stroke-miterlimit="10"/>
<path d="M247.718 558.714C314.364 652.897 366.344 698.379 419.191 709.085C445.119 714.407 466.963 710.694 490.725 697.018C516.529 682.229 531.814 663.355 541.22 635.199C547.717 615.83 547.594 589.593 540.972 569.172C536.703 556.363 527.854 540.521 519.252 530.806C500.626 509.642 474.76 496.709 445.737 494.11C435.28 493.12 417.025 495.039 406.876 498.133C372.099 508.714 357.743 512.118 338.56 514.16C320.614 516.016 305.206 515.088 289.179 511.499C259.228 504.692 234.6 489.655 205.701 460.323C198.275 452.898 195.305 450.546 193.201 450.237C188.993 449.742 185.28 452.403 184.29 456.796L183.424 460.509L210.342 502.34C225.132 525.175 241.963 550.67 247.718 558.776V558.714Z" fill="#446A71" stroke="#BCB2AA" stroke-width="37.1286" stroke-miterlimit="10"/>
<path d="M1799.69 560.137C1796.23 558.9 1681.44 551.66 1545.8 544.11C1401.74 536.127 1277.48 530.125 1173.27 526.165C1259.1 388.603 1319 293.492 1352.73 241.017C1389.61 183.777 1434.72 119.359 1488.06 47.7627L1460.71 24.8667C1379.46 63.728 1309.97 90.6462 1252.36 105.621C1194.68 120.597 1135.96 128.022 1076.24 128.022C1016.53 128.022 954.461 120.225 895.612 104.693C836.763 89.1611 769.684 62.5522 694.375 24.8667L467.148 290.831L497.841 318.121L610.217 183.839C659.907 211.005 703.224 229.445 740.353 239.099C790.6 251.784 845.612 258.096 905.451 258.096C980.822 258.096 1052.29 249.433 1119.93 232.106C1187.5 214.779 1265.91 184.025 1355.02 139.842C1246.23 242.688 1159.91 328.145 1095.98 396.276C1060.22 434.333 1026.3 475.855 994.188 520.781C958.916 520.162 927.852 519.915 900.996 520.1C883.05 520.224 847.964 521.276 847.283 521.771C846.912 522.019 847.84 527.278 849.201 533.714C850.625 540.026 852.605 554.692 853.719 566.387C856.627 597.08 856.38 617.439 852.419 650.917C851.429 659.828 850.81 667.13 850.996 667.13C852.357 667.377 872.345 666.82 890.228 666.016C892.704 665.892 895.303 665.768 897.902 665.706L861.144 721.709C624.821 722.884 467.643 724.431 306.752 726.907C220.923 728.206 199.451 731.548 96.4809 758.899C75.0082 764.53 49.2037 771.213 39.1171 773.565C28.9068 776.04 19.9342 778.33 19.1916 778.701C15.2931 780.681 20.6766 782.414 39.5503 785.26C50.8127 786.993 79.6492 791.758 103.721 795.966C176.122 808.589 220.552 814.283 254.711 815.335C266.901 815.706 396.17 816.448 458.051 816.448C560.65 816.448 665.477 816.015 800.006 815.025C696.912 972.079 623.707 1081.05 580.7 1141.57C536.145 1204.26 478.843 1274.49 408.918 1352.09L432.68 1383.96C517.519 1347.51 593.695 1321.34 661.269 1305.43C728.781 1289.59 799.016 1281.67 871.912 1281.67C944.807 1281.67 1013.25 1289.47 1075.38 1305C1137.5 1320.53 1207.12 1346.89 1284.22 1383.96L1488.12 1135.01L1461.2 1108.9L1363.74 1225.11C1309.97 1197.94 1260.83 1178.58 1216.34 1167.07C1171.79 1155.56 1123.58 1149.8 1071.6 1149.8C913.248 1149.8 745.365 1188.04 567.952 1264.4C730.575 1111.37 834.721 1010.07 880.451 960.445C922.159 915.149 960.03 866.139 994.127 813.354C1020.8 813.107 1048.52 812.859 1077.54 812.55C1155.02 811.807 1156.44 811.869 1161.64 814.53C1164.61 816.139 1169.87 819.295 1173.52 821.584L1180.08 825.854L1194.93 821.894C1211.33 817.562 1223.89 814.963 1240.78 812.612C1250.99 811.127 1251.98 811.25 1253.1 813.292C1253.78 814.592 1258.3 821.894 1263.12 829.567C1273.15 845.347 1275.38 850.173 1276.37 857.537C1276.74 860.384 1277.42 863.045 1277.79 863.354C1278.72 864.22 1278.66 884.208 1277.67 895.594C1276.98 903.329 1274.39 917.933 1273.46 918.985C1273.33 919.109 1272.65 918.552 1272.16 917.562C1270.49 914.715 1261.21 912.24 1255.02 912.921C1249.63 913.54 1243.94 916.201 1241.22 919.295C1235.65 925.483 1234.78 939.344 1239.42 950.978C1247.96 972.76 1267.89 982.785 1287.26 974.988C1295.61 971.584 1299.88 967.933 1303.66 960.26C1309.72 948.255 1310.03 930 1304.71 888.787C1303.04 875.978 1301.92 865.149 1302.29 864.777C1302.54 864.344 1302.73 858.342 1302.6 851.349C1301.98 820.285 1302.67 810.013 1305.51 808.342C1306.56 807.785 1309.22 807.785 1311.45 808.342C1313.68 808.899 1316.4 808.899 1317.39 808.342C1318.32 807.723 1322.03 806.733 1325.56 806.052C1330.94 804.938 1332.31 805.062 1334.6 806.981C1338 809.889 1344.87 809.765 1351.3 806.795C1356.5 804.382 1364.36 804.134 1412.81 804.567C1437.5 804.753 1497.16 806.609 1506.62 807.414C1508.98 807.661 1513.43 809.023 1516.46 810.508C1527.73 815.953 1535.34 816.387 1538.31 811.684C1539.73 809.641 1540.91 809.394 1546.91 809.703C1551.36 809.951 1554.52 810.693 1555.88 811.869C1558.17 813.911 1560.09 813.911 1563.31 811.745C1568.44 808.218 1580.7 810.322 1598.77 817.748C1621.6 827.154 1634.72 829.877 1655.02 829.196C1673.27 828.577 1687.75 820.78 1696.79 806.485C1712.01 782.599 1710.71 742.129 1693.94 719.419C1682 703.206 1667.82 696.894 1645.8 698.194C1630.88 699.06 1617.21 702.34 1598.15 709.766C1586.08 714.468 1581.56 715.644 1573.83 716.263C1566.15 716.82 1563.93 716.572 1562.13 714.964C1560.21 713.231 1559.22 713.169 1556.69 714.468C1555.02 715.273 1550.07 716.263 1545.8 716.511C1539.17 716.944 1537.75 716.758 1536.39 714.84C1532.86 710.199 1524.38 710.57 1514.67 715.892C1510.46 718.243 1506.32 718.8 1479.89 720.1C1447.53 721.709 1433.17 722.142 1399.76 722.327C1364.11 722.699 1356.93 722.513 1355.88 721.523C1354.09 719.914 1344.5 717.439 1341.59 717.748C1340.04 717.996 1337.63 718.986 1336.14 720.1C1334.1 721.585 1331.87 721.894 1326.74 721.214C1323.09 720.718 1319.13 719.605 1318.14 718.676C1316.71 717.253 1315.23 717.315 1312.19 718.305C1309.91 719.048 1306.94 719.295 1305.57 718.862C1303.16 718.181 1302.97 717.315 1302.23 707.723C1301.86 702.03 1301.61 689.84 1301.8 680.743C1302.05 671.523 1301.92 663.85 1301.61 663.54C1301.3 663.231 1302.29 652.587 1303.78 639.902C1304.15 636.746 1304.46 633.776 1304.83 630.929C1432.43 617.748 1580.45 601.288 1743.32 582.043C1772.9 578.578 1798.77 574.927 1800.68 574.122C1803.53 572.823 1804.33 571.957 1805.02 568.986C1805.94 564.469 1804.33 561.499 1799.94 559.89L1799.69 560.137ZM1276.86 664.345C1276.49 664.778 1275.99 667.253 1275.62 670.038C1275.44 672.761 1274.32 676.969 1273.21 679.444C1271.66 683.095 1259.04 704.011 1250.99 716.387C1249.45 718.862 1248.83 718.8 1235.59 716.82C1219.5 714.283 1206.07 711.374 1190.72 707.352C1180.26 704.506 1179.52 704.506 1176.3 706.671C1174.39 707.909 1168.32 711.622 1162.75 714.778L1152.54 720.657L1052.29 721.09C1067.77 697.761 1082.31 674.555 1095.92 651.474C1149.45 646.709 1209.6 640.954 1275.75 634.209C1276.92 646.894 1277.67 663.54 1276.92 664.407L1276.86 664.345Z" fill="#446A71"/>
<path d="M552.977 644.172C553.225 645.471 585.031 648.318 651.863 652.835C722.036 657.6 763.744 660.88 796.541 664.345C825.872 667.439 824.758 667.439 825.254 663.912C825.377 662.365 826.244 655.248 827.234 648.07C832.246 607.909 830.823 566.511 823.026 533.528C821.85 528.516 820.798 524.308 820.612 524.061C820.427 523.813 814.424 524.494 807.308 525.731C766.714 532.415 728.038 537.736 651.987 547.204C588.064 555.125 551.492 560.261 551.368 561.437C551.368 561.684 552.42 564.655 553.844 568.12C561.207 587.241 561.888 615.521 555.267 635.508C553.905 639.778 552.853 643.738 552.977 644.234V644.172Z" fill="#446A71"/>
<path d="M246.667 559.58C313.312 653.763 365.292 699.246 418.139 709.951C444.067 715.273 465.911 711.56 489.673 697.884C515.478 683.095 530.762 664.221 540.168 636.065C546.666 616.696 546.542 590.459 539.921 570.038C535.651 557.229 526.802 541.387 518.2 531.672C499.574 510.509 473.708 497.575 444.686 494.976C434.228 493.986 415.973 495.905 405.824 498.999C371.047 509.58 356.691 512.984 337.508 515.026C319.562 516.882 304.154 515.954 288.127 512.365C258.176 505.558 233.548 490.521 204.649 461.189C197.223 453.764 194.253 451.412 192.149 451.103C187.941 450.608 184.229 453.269 183.238 457.662L182.372 461.375L209.29 503.207C224.08 526.041 240.912 551.536 246.667 559.642V559.58Z" fill="#446A71"/>
</svg>
