<svg width="1788" height="1743" viewBox="0 0 1788 1743" fill="none" xmlns="http://www.w3.org/2000/svg">
<path d="M1781.69 535.271C1778.23 534.033 1663.44 526.793 1527.8 519.243C1383.74 511.261 1259.48 505.258 1155.27 501.298C1241.1 363.737 1301 268.625 1334.73 216.15C1371.61 158.91 1416.72 94.4924 1470.06 22.896L1442.71 0C1361.46 38.8613 1291.97 65.7796 1234.36 80.7548C1176.68 95.73 1117.96 103.156 1058.24 103.156C998.528 103.156 936.461 95.3586 877.612 79.8264C818.763 64.2943 751.684 37.6855 676.375 0L449.148 265.965L479.841 293.254L592.217 158.972C641.907 186.138 685.224 204.579 722.353 214.232C772.6 226.918 827.612 233.229 887.451 233.229C962.822 233.229 1034.29 224.566 1101.93 207.239C1169.5 189.913 1247.91 159.158 1337.02 114.975C1228.23 217.821 1141.91 303.279 1077.98 371.41C1042.22 409.467 1008.3 450.989 976.188 495.914C940.916 495.296 909.852 495.048 882.996 495.234C865.05 495.357 829.964 496.409 829.283 496.904C828.912 497.152 829.84 502.412 831.201 508.847C832.625 515.159 834.605 529.825 835.719 541.521C838.627 572.214 838.38 592.572 834.419 626.05C833.429 634.961 832.81 642.263 832.996 642.263C834.357 642.51 854.345 641.954 872.228 641.149C874.704 641.025 877.303 640.901 879.902 640.84L843.144 696.842C606.821 698.018 449.643 699.565 288.753 702.04C202.924 703.339 181.451 706.681 78.481 734.032C57.0082 739.663 31.2039 746.347 21.1173 748.698C10.9069 751.173 1.93417 753.463 1.1916 753.834C-2.7069 755.815 2.67675 757.547 21.5504 760.394C32.8128 762.126 61.6493 766.891 85.721 771.099C158.122 783.723 202.552 789.416 236.711 790.468C248.901 790.839 378.171 791.582 440.052 791.582C542.65 791.582 647.477 791.149 782.006 790.158C678.912 947.212 605.707 1056.18 562.7 1116.7C518.145 1179.39 460.844 1249.62 390.918 1327.22L414.68 1359.09C499.519 1322.64 575.695 1296.47 643.269 1280.57C710.781 1264.72 781.016 1256.8 853.912 1256.8C926.807 1256.8 995.248 1264.6 1057.38 1280.13C1119.5 1295.66 1189.12 1322.03 1266.22 1359.09L1470.12 1110.14L1443.2 1084.03L1345.74 1200.24C1291.97 1173.08 1242.83 1153.71 1198.34 1142.2C1153.79 1130.69 1105.58 1124.93 1053.6 1124.93C895.248 1124.93 727.365 1163.18 549.952 1239.54C712.575 1086.51 816.721 985.207 862.451 935.579C904.159 890.282 942.03 841.272 976.127 788.488C1002.8 788.24 1030.52 787.993 1059.54 787.683C1137.02 786.941 1138.44 787.003 1143.64 789.663C1146.61 791.272 1151.87 794.428 1155.52 796.718L1162.08 800.988L1176.93 797.027C1193.33 792.696 1205.89 790.097 1222.78 787.745C1232.99 786.26 1233.98 786.384 1235.1 788.426C1235.78 789.725 1240.3 797.027 1245.12 804.7C1255.15 820.48 1257.38 825.307 1258.37 832.671C1258.74 835.517 1259.42 838.178 1259.79 838.487C1260.72 839.354 1260.66 859.341 1259.67 870.727C1258.98 878.463 1256.39 893.066 1255.46 894.118C1255.33 894.242 1254.65 893.685 1254.16 892.695C1252.49 889.849 1243.2 887.374 1237.02 888.054C1231.63 888.673 1225.94 891.334 1223.22 894.428C1217.65 900.616 1216.78 914.477 1221.42 926.111C1229.96 947.893 1249.89 957.918 1269.26 950.121C1277.61 946.717 1281.88 943.066 1285.66 935.393C1291.72 923.388 1292.03 905.133 1286.71 863.921C1285.04 851.111 1283.92 840.282 1284.29 839.911C1284.54 839.478 1284.73 833.475 1284.6 826.483C1283.98 795.418 1284.67 785.146 1287.51 783.475C1288.56 782.918 1291.22 782.918 1293.45 783.475C1295.68 784.032 1298.4 784.032 1299.39 783.475C1300.32 782.857 1304.03 781.866 1307.56 781.186C1312.94 780.072 1314.31 780.196 1316.6 782.114C1320 785.022 1326.87 784.899 1333.3 781.928C1338.5 779.515 1346.36 779.267 1394.81 779.701C1419.5 779.886 1479.16 781.743 1488.63 782.547C1490.98 782.795 1495.43 784.156 1498.46 785.641C1509.73 791.087 1517.34 791.52 1520.31 786.817C1521.73 784.775 1522.91 784.527 1528.91 784.837C1533.36 785.084 1536.52 785.827 1537.88 787.002C1540.17 789.045 1542.09 789.045 1545.31 786.879C1550.44 783.352 1562.7 785.455 1580.77 792.881C1603.6 802.287 1616.72 805.01 1637.02 804.329C1655.27 803.71 1669.75 795.913 1678.79 781.619C1694.01 757.733 1692.71 717.263 1675.94 694.552C1664 678.339 1649.82 672.028 1627.8 673.327C1612.88 674.193 1599.21 677.473 1580.15 684.899C1568.08 689.602 1563.56 690.778 1555.83 691.396C1548.15 691.953 1545.93 691.706 1544.13 690.097C1542.21 688.364 1541.22 688.302 1538.69 689.602C1537.02 690.406 1532.07 691.396 1527.8 691.644C1521.17 692.077 1519.75 691.891 1518.39 689.973C1514.86 685.332 1506.38 685.703 1496.67 691.025C1492.46 693.377 1488.32 693.934 1461.89 695.233C1429.53 696.842 1415.17 697.275 1381.76 697.461C1346.11 697.832 1338.93 697.646 1337.88 696.656C1336.09 695.047 1326.5 692.572 1323.59 692.881C1322.04 693.129 1319.63 694.119 1318.14 695.233C1316.1 696.718 1313.87 697.028 1308.74 696.347C1305.09 695.852 1301.13 694.738 1300.14 693.81C1298.71 692.386 1297.23 692.448 1294.19 693.438C1291.91 694.181 1288.94 694.428 1287.57 693.995C1285.16 693.315 1284.97 692.448 1284.23 682.857C1283.86 677.164 1283.61 664.973 1283.8 655.877C1284.05 646.656 1283.92 638.983 1283.61 638.674C1283.3 638.364 1284.29 627.721 1285.78 615.035C1286.15 611.879 1286.46 608.909 1286.83 606.062C1414.43 592.882 1562.45 576.422 1725.32 557.177C1754.9 553.711 1780.77 550.06 1782.68 549.256C1785.53 547.956 1786.33 547.09 1787.02 544.12C1787.94 539.602 1786.33 536.632 1781.94 535.023L1781.69 535.271ZM1258.86 639.478C1258.49 639.911 1257.99 642.387 1257.62 645.171C1257.44 647.894 1256.32 652.102 1255.21 654.577C1253.66 658.228 1241.04 679.144 1232.99 691.52C1231.45 693.995 1230.83 693.934 1217.59 691.953C1201.5 689.416 1188.07 686.508 1172.72 682.486C1162.26 679.639 1161.52 679.639 1158.3 681.805C1156.39 683.042 1150.32 686.755 1144.75 689.911L1134.54 695.79L1034.29 696.223C1049.76 672.894 1064.31 649.689 1077.92 626.607C1131.45 621.842 1191.6 616.087 1257.75 609.342C1258.92 622.028 1259.67 638.674 1258.92 639.54L1258.86 639.478Z" fill="#446A71"/>
<path d="M534.977 619.243C535.224 620.542 567.031 623.389 633.862 627.906C704.035 632.671 745.743 635.951 778.54 639.416C807.872 642.51 806.758 642.51 807.253 638.983C807.377 637.436 808.243 630.32 809.233 623.142C814.246 582.981 812.822 541.582 805.025 508.6C803.85 503.587 802.798 499.379 802.612 499.132C802.426 498.884 796.424 499.565 789.307 500.803C748.714 507.486 710.038 512.808 633.986 522.275C570.063 530.196 533.491 535.332 533.368 536.508C533.368 536.756 534.42 539.726 535.843 543.191C543.207 562.312 543.887 590.592 537.266 610.58C535.905 614.849 534.853 618.81 534.977 619.305V619.243Z" fill="#446A71"/>
<path d="M228.667 534.714C295.312 628.897 347.293 674.379 400.139 685.085C426.067 690.407 447.911 686.694 471.673 673.018C497.478 658.229 512.762 639.355 522.168 611.199C528.666 591.83 528.542 565.593 521.921 545.172C517.651 532.363 508.802 516.521 500.2 506.806C481.574 485.642 455.708 472.709 426.686 470.11C416.228 469.12 397.973 471.038 387.825 474.133C353.047 484.714 338.691 488.118 319.508 490.16C301.562 492.016 286.154 491.088 270.127 487.499C240.177 480.692 215.548 465.655 186.649 436.323C179.224 428.898 176.253 426.546 174.15 426.237C169.942 425.742 166.229 428.403 165.239 432.796L164.372 436.509L191.291 478.341C206.08 501.175 222.912 526.67 228.667 534.776V534.714Z" fill="#446A71"/>
<path d="M564.371 1614.91C564.371 1650.3 553.727 1680.32 532.502 1705.01C511.277 1729.7 487.143 1742.01 460.101 1742.01C440.176 1742.01 426.314 1736.07 418.455 1724.19C410.596 1712.31 406.636 1697.02 406.636 1678.28C406.636 1665.53 408.802 1652.72 413.072 1639.97C417.403 1627.22 427.676 1611.32 444.012 1592.32C433.616 1592.32 424.582 1586.75 416.846 1575.55C409.111 1564.35 405.275 1548.76 405.275 1528.77C405.275 1489.97 418.146 1458.97 443.827 1435.64C469.507 1412.37 496.797 1400.74 525.571 1400.74H564.309V1614.85L564.371 1614.91ZM522.477 1534.46C501.066 1555.56 479.841 1576.67 458.74 1597.71C441.784 1621.47 433.369 1645.23 433.369 1668.99C433.369 1685.95 437.081 1697.95 444.507 1705.07C451.933 1712.19 462.02 1715.77 474.829 1715.77C489.062 1715.77 500.571 1709.22 509.358 1696.16C518.146 1683.1 522.477 1667.51 522.477 1649.38V1534.4V1534.46ZM448.096 1495.23C448.096 1509.77 450.448 1520.48 455.213 1527.29C459.977 1534.09 466.475 1537.56 474.829 1537.56C481.945 1537.56 489.618 1535.39 497.787 1531.12C505.955 1526.79 514.185 1520.97 522.539 1513.55V1414.17C500.262 1414.17 482.316 1422.4 468.641 1438.92C454.965 1455.38 448.158 1474.19 448.158 1495.29L448.096 1495.23Z" fill="#456A71"/>
<path d="M747.043 1401.67V1566.52C747.353 1570.35 749.271 1572.33 752.86 1572.33C755.521 1572.33 758.739 1571.34 762.452 1569.43C766.165 1567.51 772.167 1564.17 780.521 1559.4C776.684 1567.45 770.187 1575.3 761.152 1583.04C752.118 1590.77 743.392 1594.61 735.1 1594.61C730.336 1594.61 724.209 1591.33 716.598 1584.83C709.048 1578.27 705.212 1569.55 705.212 1558.53V1534.46C687.081 1552.59 671.796 1567.14 659.296 1578.15C646.796 1589.17 635.967 1594.61 626.747 1594.61C616.66 1594.61 607.687 1588.67 599.767 1576.79C591.846 1564.91 587.947 1549.01 587.947 1529.14C587.947 1488.73 599.086 1457.42 621.363 1435.14C643.64 1412.87 672.601 1401.73 708.244 1401.73H746.982L747.043 1401.67ZM630.769 1495.23C630.769 1509.77 633.121 1520.48 637.885 1527.28C642.65 1534.09 649.148 1537.56 657.502 1537.56C664.618 1537.56 672.291 1535.39 680.459 1531.12C688.628 1526.79 696.858 1520.97 705.212 1513.55V1414.17C682.935 1414.17 664.989 1422.4 651.314 1438.92C637.638 1455.38 630.831 1474.19 630.831 1495.29L630.769 1495.23Z" fill="#456A71"/>
<path d="M904.778 1594.61V1464.91C904.778 1458.1 904.035 1452.72 902.55 1448.7C901.065 1444.67 896.857 1442.69 889.988 1442.69C882.501 1442.69 872.662 1450.49 860.347 1466.08C848.095 1481.68 841.969 1490.84 841.969 1493.5V1568.93C840.484 1575.12 835.409 1581 826.746 1586.44C818.083 1591.89 809.481 1594.67 800.942 1594.67V1442.69C800.942 1437.99 799.147 1435.58 795.62 1435.58C791.165 1435.58 782.687 1439.6 770.249 1447.58C781.449 1433.35 791.721 1422.09 801.004 1413.92C810.286 1405.75 817.588 1401.67 822.91 1401.67C831.14 1401.67 836.4 1406.18 838.627 1415.28C840.855 1424.31 841.969 1438.36 841.969 1457.36V1473.82C853.541 1455.69 865.793 1439.17 878.726 1424.13C891.659 1409.09 905.211 1401.6 919.506 1401.6C930.521 1401.6 937.761 1405.32 941.35 1412.74C944.939 1420.17 946.671 1431.31 946.671 1446.16V1472.46C957.686 1456.74 969.939 1440.96 983.429 1425.24C996.919 1409.53 1010.53 1401.6 1024.21 1401.6C1033.74 1401.6 1040.48 1404.14 1044.51 1409.15C1048.53 1414.17 1050.51 1422.77 1050.51 1434.96V1562.93C1050.51 1570.04 1052.74 1573.57 1057.19 1573.57C1062.27 1573.57 1069.94 1568.99 1080.33 1559.77C1076.75 1569.43 1070.99 1577.66 1062.95 1584.4C1054.9 1591.15 1045.74 1594.49 1035.35 1594.49C1018.14 1594.49 1009.48 1583.41 1009.48 1561.2V1464.78C1009.48 1457.11 1008.3 1451.48 1005.89 1447.89C1003.54 1444.36 999.642 1442.57 994.32 1442.57C987.513 1442.57 977.859 1450.43 965.359 1466.21C952.86 1481.93 946.671 1491.02 946.671 1493.37V1568.81C945.186 1575 940.236 1580.87 931.758 1586.32C923.28 1591.76 914.308 1594.55 904.778 1594.55V1594.61Z" fill="#456A71"/>
<path d="M1199.7 1399.93C1211.27 1399.93 1220.87 1402.04 1228.42 1406.18C1235.96 1410.33 1246.3 1418.99 1259.36 1432.11L1151.06 1540.71C1157 1550.49 1164.37 1556.8 1173.09 1559.65C1181.88 1562.5 1191.72 1563.86 1202.73 1563.86C1213.75 1563.86 1224.02 1561.26 1233.68 1556.12C1243.33 1550.99 1251.99 1545.54 1259.73 1539.79C1247.85 1558.04 1234.79 1571.78 1220.49 1580.87C1206.26 1590.03 1189.93 1594.55 1171.48 1594.55C1145.06 1594.55 1126.31 1586.07 1115.36 1569.12C1104.34 1552.16 1098.9 1533.84 1098.9 1514.17C1098.9 1479.64 1108.55 1451.98 1127.86 1431.12C1147.17 1410.27 1171.05 1399.87 1199.58 1399.87L1199.7 1399.93ZM1147.1 1530.5C1157.5 1520.35 1167.9 1510.21 1178.29 1500.06C1194.01 1483.04 1201.93 1470.23 1201.93 1461.57C1201.93 1451.11 1199.39 1443 1194.38 1437.19C1189.31 1431.37 1182.62 1428.46 1174.33 1428.46C1163.94 1428.46 1155.77 1434.65 1149.83 1447.03C1143.89 1459.4 1140.92 1474.13 1140.92 1491.08C1140.92 1498.26 1141.35 1505.01 1142.28 1511.44C1143.14 1517.88 1144.81 1524.19 1147.17 1530.44L1147.1 1530.5Z" fill="#456A71"/>
<path d="M1405.95 1398.02C1400.88 1406.06 1397.16 1414.1 1394.81 1422.15C1392.46 1430.19 1390.36 1437.5 1388.56 1444.06C1379.03 1433.29 1370.12 1425.74 1361.83 1421.47C1353.54 1417.14 1343.82 1415.03 1332.87 1415.03C1321.92 1415.03 1314.18 1416.95 1309.73 1420.85C1305.27 1424.75 1303.04 1429.95 1303.04 1436.51C1303.04 1443.99 1314.18 1452.41 1336.46 1461.81C1358.74 1471.22 1376.31 1480.56 1389.24 1489.85C1402.18 1499.13 1408.61 1513.92 1408.61 1534.22C1408.61 1558.1 1401.25 1573.94 1386.58 1581.74C1371.86 1589.54 1353.23 1593.37 1330.64 1593.37C1308.06 1593.37 1293.2 1589.17 1286.95 1580.69C1280.7 1572.21 1277.61 1551.48 1277.61 1518.56C1283.24 1534.03 1292.46 1547.95 1305.21 1560.45C1317.96 1572.95 1333.3 1579.14 1351.13 1579.14C1371.61 1579.14 1381.88 1569.86 1381.88 1551.36C1381.88 1542.38 1371.05 1532.98 1349.33 1523.14C1327.67 1513.3 1310.72 1503.71 1298.53 1494.49C1286.34 1485.21 1280.27 1469.67 1280.27 1447.89C1280.27 1429.08 1286.09 1416.08 1297.66 1408.91C1309.23 1401.73 1324.7 1398.14 1344.01 1398.14C1349.08 1398.14 1356.01 1399.19 1364.92 1401.3C1373.84 1403.4 1379.03 1404.45 1380.52 1404.45C1385.28 1404.45 1389.31 1404.08 1392.52 1403.34C1395.8 1402.59 1400.26 1400.86 1405.89 1398.14L1405.95 1398.02Z" fill="#456A71"/>
</svg>
