<svg width="2527" height="2527" viewBox="0 0 2527 2527" fill="none" xmlns="http://www.w3.org/2000/svg">
<path d="M1263.49 2526.97C1961.29 2526.97 2526.97 1961.29 2526.97 1263.49C2526.97 565.682 1961.29 0 1263.49 0C565.682 0 0 565.682 0 1263.49C0 1961.29 565.682 2526.97 1263.49 2526.97Z" fill="#292928"/>
<path d="M2126.91 982.918C2123.45 981.68 2008.66 974.44 1873.01 966.89C1728.96 958.908 1604.7 952.905 1500.49 948.945C1586.32 811.383 1646.22 716.272 1679.95 663.797C1716.83 606.557 1761.94 542.139 1815.28 470.543L1787.93 447.647C1706.68 486.508 1637.19 513.426 1579.57 528.402C1521.9 543.377 1463.18 550.803 1403.46 550.803C1343.75 550.803 1281.68 543.006 1222.83 527.473C1163.98 511.941 1096.9 485.332 1021.59 447.647L794.367 713.612L825.06 740.901L937.436 606.619C987.126 633.785 1030.44 652.226 1067.57 661.879C1117.82 674.565 1172.83 680.876 1232.67 680.876C1308.04 680.876 1379.51 672.213 1447.15 654.886C1514.72 637.56 1593.13 606.805 1682.24 562.622C1573.45 665.468 1487.12 750.926 1423.2 819.057C1387.43 857.113 1353.52 898.636 1321.41 943.561C1286.13 942.942 1255.07 942.695 1228.21 942.881C1210.27 943.004 1175.18 944.056 1174.5 944.551C1174.13 944.799 1175.06 950.059 1176.42 956.494C1177.84 962.806 1179.82 977.472 1180.94 989.168C1183.85 1019.86 1183.6 1040.22 1179.64 1073.7C1178.65 1082.61 1178.03 1089.91 1178.21 1089.91C1179.58 1090.16 1199.56 1089.6 1217.45 1088.8C1219.92 1088.67 1222.52 1088.55 1225.12 1088.49L1188.36 1144.49C952.039 1145.66 794.862 1147.21 633.971 1149.69C548.142 1150.99 526.669 1154.33 423.699 1181.68C402.227 1187.31 376.422 1193.99 366.336 1196.35C356.125 1198.82 347.153 1201.11 346.41 1201.48C342.512 1203.46 347.895 1205.19 366.769 1208.04C378.031 1209.77 406.868 1214.54 430.94 1218.75C503.34 1231.37 547.771 1237.06 581.929 1238.11C594.12 1238.49 723.389 1239.23 785.27 1239.23C887.869 1239.23 992.695 1238.8 1127.22 1237.81C1024.13 1394.86 950.925 1503.83 907.918 1564.35C863.364 1627.04 806.062 1697.27 736.137 1774.87L759.899 1806.74C844.738 1770.29 920.913 1744.12 988.487 1728.21C1056 1712.37 1126.23 1704.45 1199.13 1704.45C1272.03 1704.45 1340.47 1712.25 1402.59 1727.78C1464.72 1743.31 1534.34 1769.67 1611.44 1806.74L1815.34 1557.79L1788.42 1531.68L1690.96 1647.89C1637.19 1620.73 1588.05 1601.36 1543.56 1589.85C1499.01 1578.34 1450.8 1572.58 1398.82 1572.58C1240.47 1572.58 1072.58 1610.82 895.171 1687.19C1057.79 1534.15 1161.94 1432.85 1207.67 1383.23C1249.38 1337.93 1287.25 1288.92 1321.35 1236.13C1348.02 1235.89 1375.74 1235.64 1404.76 1235.33C1482.24 1234.59 1483.66 1234.65 1488.86 1237.31C1491.83 1238.92 1497.09 1242.08 1500.74 1244.36L1507.3 1248.63L1522.15 1244.67C1538.55 1240.34 1551.11 1237.74 1568 1235.39C1578.21 1233.91 1579.2 1234.03 1580.32 1236.07C1581 1237.37 1585.52 1244.67 1590.34 1252.35C1600.37 1268.13 1602.59 1272.95 1603.58 1280.32C1603.96 1283.16 1604.64 1285.83 1605.01 1286.13C1605.94 1287 1605.87 1306.99 1604.88 1318.37C1604.2 1326.11 1601.6 1340.71 1600.68 1341.77C1600.55 1341.89 1599.87 1341.33 1599.38 1340.34C1597.71 1337.5 1588.42 1335.02 1582.24 1335.7C1576.85 1336.32 1571.16 1338.98 1568.44 1342.07C1562.87 1348.26 1562 1362.12 1566.64 1373.76C1575.18 1395.54 1595.11 1405.56 1614.48 1397.77C1622.83 1394.36 1627.1 1390.71 1630.87 1383.04C1636.94 1371.04 1637.25 1352.78 1631.93 1311.57C1630.25 1298.76 1629.14 1287.93 1629.51 1287.56C1629.76 1287.12 1629.95 1281.12 1629.82 1274.13C1629.2 1243.07 1629.88 1232.79 1632.73 1231.12C1633.78 1230.57 1636.44 1230.57 1638.67 1231.12C1640.9 1231.68 1643.62 1231.68 1644.61 1231.12C1645.54 1230.5 1649.25 1229.51 1652.78 1228.83C1658.16 1227.72 1659.52 1227.84 1661.81 1229.76C1665.22 1232.67 1672.09 1232.55 1678.52 1229.58C1683.72 1227.16 1691.58 1226.91 1740.03 1227.35C1764.72 1227.53 1824.38 1229.39 1833.84 1230.19C1836.19 1230.44 1840.65 1231.8 1843.68 1233.29C1854.95 1238.73 1862.56 1239.17 1865.53 1234.46C1866.95 1232.42 1868.13 1232.17 1874.13 1232.48C1878.58 1232.73 1881.74 1233.47 1883.1 1234.65C1885.39 1236.69 1887.31 1236.69 1890.53 1234.53C1895.66 1231 1907.92 1233.1 1925.98 1240.53C1948.82 1249.93 1961.94 1252.66 1982.23 1251.98C2000.49 1251.36 2014.97 1243.56 2024 1229.27C2039.23 1205.38 2037.93 1164.91 2021.16 1142.2C2009.21 1125.99 1995.04 1119.67 1973.01 1120.97C1958.1 1121.84 1944.42 1125.12 1925.37 1132.55C1913.3 1137.25 1908.78 1138.42 1901.05 1139.04C1893.37 1139.6 1891.15 1139.35 1889.35 1137.74C1887.43 1136.01 1886.44 1135.95 1883.91 1137.25C1882.23 1138.05 1877.28 1139.04 1873.01 1139.29C1866.39 1139.72 1864.97 1139.54 1863.61 1137.62C1860.08 1132.98 1851.6 1133.35 1841.89 1138.67C1837.68 1141.02 1833.53 1141.58 1807.11 1142.88C1774.75 1144.49 1760.39 1144.92 1726.97 1145.11C1691.33 1145.48 1684.15 1145.29 1683.1 1144.3C1681.31 1142.69 1671.72 1140.22 1668.81 1140.53C1667.26 1140.78 1664.85 1141.77 1663.36 1142.88C1661.32 1144.37 1659.09 1144.67 1653.96 1143.99C1650.3 1143.5 1646.34 1142.38 1645.35 1141.46C1643.93 1140.03 1642.45 1140.1 1639.41 1141.09C1637.12 1141.83 1634.15 1142.08 1632.79 1141.64C1630.38 1140.96 1630.19 1140.1 1629.45 1130.5C1629.08 1124.81 1628.83 1112.62 1629.02 1103.52C1629.27 1094.3 1629.14 1086.63 1628.83 1086.32C1628.52 1086.01 1629.51 1075.37 1631 1062.68C1631.37 1059.53 1631.68 1056.56 1632.05 1053.71C1759.65 1040.53 1907.67 1024.07 2070.54 1004.82C2100.12 1001.36 2125.98 997.707 2127.9 996.903C2130.75 995.603 2131.55 994.737 2132.23 991.767C2133.16 987.249 2131.55 984.279 2127.16 982.67L2126.91 982.918ZM1604.08 1087.13C1603.71 1087.56 1603.21 1090.03 1602.84 1092.82C1602.66 1095.54 1601.54 1099.75 1600.43 1102.22C1598.88 1105.88 1586.26 1126.79 1578.21 1139.17C1576.67 1141.64 1576.05 1141.58 1562.8 1139.6C1546.72 1137.06 1533.29 1134.15 1517.94 1130.13C1507.48 1127.29 1506.74 1127.29 1503.52 1129.45C1501.6 1130.69 1495.54 1134.4 1489.97 1137.56L1479.76 1143.44L1379.51 1143.87C1394.98 1120.54 1409.53 1097.34 1423.14 1074.25C1476.67 1069.49 1536.81 1063.73 1602.97 1056.99C1604.14 1069.67 1604.88 1086.32 1604.14 1087.19L1604.08 1087.13Z" fill="#446A71" stroke="#BCB2AA" stroke-width="37.1286" stroke-miterlimit="10"/>
<path d="M880.196 1066.95C880.443 1068.25 912.25 1071.1 979.082 1075.62C1049.25 1080.38 1090.96 1083.66 1123.76 1087.13C1153.09 1090.22 1151.98 1090.22 1152.47 1086.69C1152.6 1085.15 1153.46 1078.03 1154.45 1070.85C1159.46 1030.69 1158.04 989.292 1150.24 956.309C1149.07 951.297 1148.02 947.089 1147.83 946.841C1147.65 946.594 1141.64 947.275 1134.53 948.512C1093.93 955.195 1055.26 960.517 979.205 969.985C915.282 977.906 878.711 983.042 878.587 984.218C878.587 984.465 879.639 987.435 881.062 990.901C888.426 1010.02 889.107 1038.3 882.485 1058.29C881.124 1062.56 880.072 1066.52 880.196 1067.01V1066.95Z" fill="#446A71" stroke="#BCB2AA" stroke-width="37.1286" stroke-miterlimit="10"/>
<path d="M573.885 982.361C640.531 1076.54 692.511 1122.03 745.357 1132.73C771.285 1138.05 793.129 1134.34 816.891 1120.66C842.696 1105.88 857.98 1087 867.386 1058.85C873.884 1039.48 873.76 1013.24 867.139 992.818C862.869 980.009 854.02 964.168 845.418 954.452C826.792 933.289 800.926 920.356 771.904 917.757C761.446 916.767 743.191 918.685 733.043 921.779C698.266 932.361 683.909 935.764 664.726 937.806C646.781 939.663 631.372 938.735 615.345 935.145C585.395 928.338 560.766 913.301 531.868 883.97C524.442 876.544 521.472 874.193 519.368 873.883C515.16 873.388 511.447 876.049 510.457 880.443L509.59 884.155L536.509 925.987C551.298 948.821 568.13 974.316 573.885 982.422V982.361Z" fill="#446A71" stroke="#BCB2AA" stroke-width="37.1286" stroke-miterlimit="10"/>
<path d="M909.59 2062.62C909.59 2098.01 898.946 2128.03 877.721 2152.72C856.496 2177.41 832.362 2189.72 805.32 2189.72C785.394 2189.72 771.533 2183.78 763.674 2171.9C755.815 2160.02 751.855 2144.73 751.855 2125.98C751.855 2113.24 754.021 2100.43 758.29 2087.68C762.622 2074.93 772.894 2059.03 789.231 2040.03C778.835 2040.03 769.8 2034.46 762.065 2023.26C754.33 2012.06 750.493 1996.47 750.493 1976.48C750.493 1937.68 763.365 1906.68 789.045 1883.35C814.726 1860.08 842.015 1848.45 870.79 1848.45H909.528V2062.56L909.59 2062.62ZM867.696 1982.17C846.285 2003.27 825.06 2024.38 803.959 2045.41C787.003 2069.18 778.587 2092.94 778.587 2116.7C778.587 2133.66 782.3 2145.66 789.726 2152.78C797.152 2159.89 807.238 2163.48 820.048 2163.48C834.28 2163.48 845.79 2156.92 854.577 2143.87C863.364 2130.81 867.696 2115.22 867.696 2097.09V1982.11V1982.17ZM793.315 1942.94C793.315 1957.48 795.667 1968.19 800.431 1974.99C805.196 1981.8 811.694 1985.27 820.048 1985.27C827.164 1985.27 834.837 1983.1 843.006 1978.83C851.174 1974.5 859.404 1968.68 867.758 1961.26V1861.88C845.481 1861.88 827.535 1870.11 813.86 1886.63C800.184 1903.09 793.377 1921.9 793.377 1943L793.315 1942.94Z" fill="#456A71" stroke="#BCB2AA" stroke-width="37.1286" stroke-miterlimit="10"/>
<path d="M1092.26 1849.38V2014.23C1092.57 2018.06 1094.49 2020.04 1098.08 2020.04C1100.74 2020.04 1103.96 2019.05 1107.67 2017.13C1111.38 2015.22 1117.39 2011.87 1125.74 2007.11C1121.9 2015.15 1115.41 2023.01 1106.37 2030.75C1097.34 2038.48 1088.61 2042.32 1080.32 2042.32C1075.55 2042.32 1069.43 2039.04 1061.82 2032.54C1054.27 2025.98 1050.43 2017.26 1050.43 2006.24V1982.17C1032.3 2000.3 1017.01 2014.85 1004.51 2025.86C992.015 2036.87 981.186 2042.32 971.965 2042.32C961.879 2042.32 952.906 2036.38 944.985 2024.5C937.065 2012.62 933.166 1996.71 933.166 1976.85C933.166 1936.44 944.305 1905.13 966.582 1882.85C988.859 1860.58 1017.82 1849.44 1053.46 1849.44H1092.2L1092.26 1849.38ZM975.988 1942.94C975.988 1957.48 978.339 1968.19 983.104 1974.99C987.869 1981.8 994.366 1985.27 1002.72 1985.27C1009.84 1985.27 1017.51 1983.1 1025.68 1978.83C1033.85 1974.5 1042.08 1968.68 1050.43 1961.26V1861.88C1028.15 1861.88 1010.21 1870.11 996.532 1886.63C982.856 1903.09 976.049 1921.9 976.049 1943L975.988 1942.94Z" fill="#456A71" stroke="#BCB2AA" stroke-width="37.1286" stroke-miterlimit="10"/>
<path d="M1250 2042.32V1912.62C1250 1905.81 1249.25 1900.43 1247.77 1896.4C1246.28 1892.38 1242.08 1890.4 1235.21 1890.4C1227.72 1890.4 1217.88 1898.2 1205.57 1913.79C1193.31 1929.39 1187.19 1938.55 1187.19 1941.21V2016.64C1185.7 2022.83 1180.63 2028.71 1171.96 2034.15C1163.3 2039.6 1154.7 2042.38 1146.16 2042.38V1890.4C1146.16 1885.7 1144.37 1883.29 1140.84 1883.29C1136.38 1883.29 1127.91 1887.31 1115.47 1895.29C1126.67 1881.06 1136.94 1869.8 1146.22 1861.63C1155.5 1853.46 1162.81 1849.38 1168.13 1849.38C1176.36 1849.38 1181.62 1853.89 1183.85 1862.99C1186.07 1872.02 1187.19 1886.07 1187.19 1905.07V1921.53C1198.76 1903.4 1211.01 1886.88 1223.94 1871.84C1236.88 1856.8 1250.43 1849.31 1264.72 1849.31C1275.74 1849.31 1282.98 1853.03 1286.57 1860.45C1290.16 1867.88 1291.89 1879.02 1291.89 1893.87V1920.17C1302.9 1904.45 1315.16 1888.67 1328.65 1872.95C1342.14 1857.23 1355.75 1849.31 1369.43 1849.31C1378.96 1849.31 1385.7 1851.85 1389.72 1856.86C1393.75 1861.88 1395.73 1870.48 1395.73 1882.67V2010.64C1395.73 2017.75 1397.95 2021.28 1402.41 2021.28C1407.48 2021.28 1415.16 2016.7 1425.55 2007.48C1421.96 2017.13 1416.21 2025.36 1408.16 2032.11C1400.12 2038.86 1390.96 2042.2 1380.57 2042.2C1363.36 2042.2 1354.7 2031.12 1354.7 2008.9V1912.49C1354.7 1904.82 1353.52 1899.19 1351.11 1895.6C1348.76 1892.07 1344.86 1890.28 1339.54 1890.28C1332.73 1890.28 1323.08 1898.14 1310.58 1913.92C1298.08 1929.64 1291.89 1938.73 1291.89 1941.08V2016.52C1290.4 2022.7 1285.45 2028.58 1276.98 2034.03C1268.5 2039.47 1259.53 2042.26 1250 2042.26V2042.32Z" fill="#456A71" stroke="#BCB2AA" stroke-width="37.1286" stroke-miterlimit="10"/>
<path d="M1544.92 1847.58C1556.49 1847.58 1566.08 1849.68 1573.63 1853.83C1581.18 1857.98 1591.52 1866.64 1604.57 1879.76L1496.28 1988.36C1502.22 1998.14 1509.59 2004.45 1518.31 2007.3C1527.1 2010.14 1536.94 2011.5 1547.95 2011.5C1558.97 2011.5 1569.24 2008.9 1578.89 2003.77C1588.55 1998.63 1597.21 1993.19 1604.95 1987.43C1593.06 2005.69 1580.01 2019.42 1565.71 2028.52C1551.48 2037.68 1535.14 2042.2 1516.7 2042.2C1490.28 2042.2 1471.53 2033.72 1460.58 2016.76C1449.56 1999.81 1444.12 1981.49 1444.12 1961.81C1444.12 1927.28 1453.77 1899.62 1473.08 1878.77C1492.38 1857.91 1516.27 1847.52 1544.8 1847.52L1544.92 1847.58ZM1492.32 1978.15C1502.72 1968 1513.11 1957.85 1523.51 1947.7C1539.23 1930.69 1547.15 1917.88 1547.15 1909.21C1547.15 1898.76 1544.61 1890.65 1539.6 1884.83C1534.53 1879.02 1527.84 1876.11 1519.55 1876.11C1509.15 1876.11 1500.99 1882.3 1495.05 1894.67C1489.1 1907.05 1486.13 1921.78 1486.13 1938.73C1486.13 1945.91 1486.57 1952.65 1487.5 1959.09C1488.36 1965.53 1490.03 1971.84 1492.38 1978.09L1492.32 1978.15Z" fill="#456A71" stroke="#BCB2AA" stroke-width="37.1286" stroke-miterlimit="10"/>
<path d="M1751.23 1845.66C1746.16 1853.71 1742.45 1861.75 1740.09 1869.8C1737.74 1877.84 1735.64 1885.14 1733.84 1891.7C1724.31 1880.93 1715.4 1873.39 1707.11 1869.12C1698.82 1864.78 1689.1 1862.68 1678.15 1862.68C1667.2 1862.68 1659.46 1864.6 1655.01 1868.5C1650.55 1872.4 1648.32 1877.59 1648.32 1884.15C1648.32 1891.64 1659.46 1900.06 1681.74 1909.46C1704.02 1918.87 1721.59 1928.21 1734.53 1937.49C1747.46 1946.78 1753.89 1961.57 1753.89 1981.86C1753.89 2005.75 1746.53 2021.59 1731.86 2029.39C1717.14 2037.18 1698.51 2041.02 1675.92 2041.02C1653.34 2041.02 1638.49 2036.81 1632.24 2028.34C1625.99 2019.86 1622.89 1999.13 1622.89 1966.21C1628.52 1981.68 1637.74 1995.6 1650.49 2008.1C1663.24 2020.6 1678.58 2026.79 1696.41 2026.79C1716.89 2026.79 1727.16 2017.51 1727.16 1999C1727.16 1990.03 1716.33 1980.63 1694.61 1970.79C1672.95 1960.95 1656 1951.36 1643.81 1942.14C1631.62 1932.85 1625.55 1917.32 1625.55 1895.54C1625.55 1876.73 1631.37 1863.73 1642.94 1856.55C1654.51 1849.38 1669.98 1845.79 1689.29 1845.79C1694.36 1845.79 1701.3 1846.84 1710.21 1848.94C1719.12 1851.05 1724.31 1852.1 1725.8 1852.1C1730.56 1852.1 1734.59 1851.73 1737.8 1850.98C1741.08 1850.24 1745.54 1848.51 1751.17 1845.79L1751.23 1845.66Z" fill="#456A71" stroke="#BCB2AA" stroke-width="37.1286" stroke-miterlimit="10"/>
<path d="M2125.86 983.846C2122.39 982.609 2007.6 975.369 1871.96 967.819C1727.9 959.836 1603.65 953.834 1499.44 949.874C1585.27 812.312 1645.17 717.201 1678.89 664.726C1715.77 607.486 1760.89 543.068 1814.23 471.472L1786.88 448.576C1705.63 487.437 1636.13 514.355 1578.52 529.33C1520.85 544.306 1462.12 551.731 1402.41 551.731C1342.69 551.731 1280.63 543.934 1221.78 528.402C1162.93 512.87 1095.85 486.261 1020.54 448.576L793.314 714.54L824.007 741.83L936.383 607.548C986.074 634.714 1029.39 653.154 1066.52 662.808C1116.77 675.493 1171.78 681.805 1231.62 681.805C1306.99 681.805 1378.46 673.142 1446.1 655.815C1513.67 638.488 1592.07 607.734 1681.18 563.551C1572.4 666.397 1486.07 751.854 1422.15 819.985C1386.38 858.042 1352.47 899.564 1320.35 944.49C1285.08 943.871 1254.02 943.624 1227.16 943.809C1209.22 943.933 1174.13 944.985 1173.45 945.48C1173.08 945.728 1174.01 950.987 1175.37 957.423C1176.79 963.735 1178.77 978.401 1179.88 990.096C1182.79 1020.79 1182.55 1041.15 1178.59 1074.63C1177.6 1083.54 1176.98 1090.84 1177.16 1090.84C1178.52 1091.09 1198.51 1090.53 1216.39 1089.72C1218.87 1089.6 1221.47 1089.48 1224.07 1089.42L1187.31 1145.42C950.987 1146.59 793.809 1148.14 632.919 1150.62C547.09 1151.92 525.617 1155.26 422.647 1182.61C401.175 1188.24 375.37 1194.92 365.284 1197.27C355.073 1199.75 346.1 1202.04 345.358 1202.41C341.459 1204.39 346.843 1206.12 365.717 1208.97C376.979 1210.7 405.816 1215.47 429.887 1219.67C502.288 1232.3 546.719 1237.99 580.877 1239.04C593.067 1239.41 722.337 1240.16 784.218 1240.16C886.817 1240.16 991.643 1239.72 1126.17 1238.73C1023.08 1395.79 949.873 1504.76 906.866 1565.28C862.312 1627.97 805.01 1698.2 735.084 1775.8L758.847 1807.67C843.686 1771.22 919.861 1745.04 987.435 1729.14C1054.95 1713.3 1125.18 1705.38 1198.08 1705.38C1270.97 1705.38 1339.41 1713.18 1401.54 1728.71C1463.67 1744.24 1533.29 1770.6 1610.39 1807.67L1814.29 1558.72L1787.37 1532.61L1689.91 1648.82C1636.13 1621.65 1587 1602.28 1542.51 1590.78C1497.95 1579.27 1449.75 1573.51 1397.77 1573.51C1239.41 1573.51 1071.53 1611.75 894.119 1688.11C1056.74 1535.08 1160.89 1433.78 1206.62 1384.15C1248.33 1338.86 1286.2 1289.85 1320.29 1237.06C1346.96 1236.82 1374.69 1236.57 1403.71 1236.26C1481.18 1235.52 1482.61 1235.58 1487.8 1238.24C1490.78 1239.85 1496.03 1243 1499.69 1245.29L1506.25 1249.56L1521.1 1245.6C1537.5 1241.27 1550.06 1238.67 1566.95 1236.32C1577.16 1234.84 1578.15 1234.96 1579.26 1237C1579.95 1238.3 1584.46 1245.6 1589.29 1253.28C1599.31 1269.06 1601.54 1273.88 1602.53 1281.25C1602.9 1284.09 1603.58 1286.75 1603.96 1287.06C1604.88 1287.93 1604.82 1307.92 1603.83 1319.3C1603.15 1327.04 1600.55 1341.64 1599.62 1342.69C1599.5 1342.82 1598.82 1342.26 1598.32 1341.27C1596.65 1338.42 1587.37 1335.95 1581.18 1336.63C1575.8 1337.25 1570.11 1339.91 1567.38 1343C1561.81 1349.19 1560.95 1363.05 1565.59 1374.69C1574.13 1396.47 1594.05 1406.49 1613.42 1398.7C1621.78 1395.29 1626.05 1391.64 1629.82 1383.97C1635.89 1371.96 1636.2 1353.71 1630.87 1312.5C1629.2 1299.69 1628.09 1288.86 1628.46 1288.49C1628.71 1288.05 1628.89 1282.05 1628.77 1275.06C1628.15 1243.99 1628.83 1233.72 1631.68 1232.05C1632.73 1231.49 1635.39 1231.49 1637.62 1232.05C1639.85 1232.61 1642.57 1232.61 1643.56 1232.05C1644.49 1231.43 1648.2 1230.44 1651.73 1229.76C1657.11 1228.65 1658.47 1228.77 1660.76 1230.69C1664.17 1233.6 1671.03 1233.47 1677.47 1230.5C1682.67 1228.09 1690.53 1227.84 1738.98 1228.28C1763.67 1228.46 1823.32 1230.32 1832.79 1231.12C1835.14 1231.37 1839.6 1232.73 1842.63 1234.22C1853.89 1239.66 1861.5 1240.1 1864.47 1235.39C1865.9 1233.35 1867.07 1233.1 1873.08 1233.41C1877.53 1233.66 1880.69 1234.4 1882.05 1235.58C1884.34 1237.62 1886.26 1237.62 1889.47 1235.45C1894.61 1231.93 1906.86 1234.03 1924.93 1241.46C1947.77 1250.86 1960.88 1253.59 1981.18 1252.9C1999.44 1252.29 2013.92 1244.49 2022.95 1230.19C2038.17 1206.31 2036.87 1165.84 2020.1 1143.13C2008.16 1126.92 1993.99 1120.6 1971.96 1121.9C1957.05 1122.77 1943.37 1126.05 1924.31 1133.47C1912.25 1138.18 1907.73 1139.35 1899.99 1139.97C1892.32 1140.53 1890.09 1140.28 1888.3 1138.67C1886.38 1136.94 1885.39 1136.88 1882.85 1138.18C1881.18 1138.98 1876.23 1139.97 1871.96 1140.22C1865.34 1140.65 1863.92 1140.47 1862.56 1138.55C1859.03 1133.91 1850.55 1134.28 1840.84 1139.6C1836.63 1141.95 1832.48 1142.51 1806.06 1143.81C1773.69 1145.42 1759.34 1145.85 1725.92 1146.04C1690.28 1146.41 1683.1 1146.22 1682.05 1145.23C1680.25 1143.62 1670.66 1141.15 1667.75 1141.46C1666.21 1141.7 1663.79 1142.69 1662.31 1143.81C1660.27 1145.29 1658.04 1145.6 1652.9 1144.92C1649.25 1144.43 1645.29 1143.31 1644.3 1142.39C1642.88 1140.96 1641.39 1141.02 1638.36 1142.01C1636.07 1142.76 1633.1 1143 1631.74 1142.57C1629.33 1141.89 1629.14 1141.02 1628.4 1131.43C1628.03 1125.74 1627.78 1113.55 1627.97 1104.45C1628.21 1095.23 1628.09 1087.56 1627.78 1087.25C1627.47 1086.94 1628.46 1076.3 1629.95 1063.61C1630.32 1060.45 1630.63 1057.48 1631 1054.64C1758.6 1041.46 1906.62 1025 2069.49 1005.75C2099.07 1002.29 2124.93 998.636 2126.85 997.831C2129.7 996.532 2130.5 995.666 2131.18 992.695C2132.11 988.178 2130.5 985.208 2126.11 983.599L2125.86 983.846ZM1603.03 1088.05C1602.66 1088.49 1602.16 1090.96 1601.79 1093.75C1601.6 1096.47 1600.49 1100.68 1599.38 1103.15C1597.83 1106.8 1585.21 1127.72 1577.16 1140.1C1575.61 1142.57 1575 1142.51 1561.75 1140.53C1545.66 1137.99 1532.24 1135.08 1516.89 1131.06C1506.43 1128.21 1505.69 1128.21 1502.47 1130.38C1500.55 1131.62 1494.49 1135.33 1488.92 1138.49L1478.71 1144.37L1378.46 1144.8C1393.93 1121.47 1408.47 1098.26 1422.09 1075.18C1475.61 1070.42 1535.76 1064.66 1601.91 1057.92C1603.09 1070.6 1603.83 1087.25 1603.09 1088.12L1603.03 1088.05Z" fill="#446A71"/>
<path d="M879.205 1067.82C879.453 1069.12 911.259 1071.97 978.091 1076.48C1048.26 1081.25 1089.97 1084.53 1122.77 1087.99C1152.1 1091.09 1150.99 1091.09 1151.48 1087.56C1151.61 1086.01 1152.47 1078.9 1153.46 1071.72C1158.47 1031.56 1157.05 990.158 1149.25 957.176C1148.08 952.164 1147.03 947.956 1146.84 947.708C1146.65 947.461 1140.65 948.141 1133.54 949.379C1092.94 956.062 1054.27 961.384 978.215 970.852C914.292 978.772 877.72 983.908 877.596 985.084C877.596 985.332 878.648 988.302 880.071 991.767C887.435 1010.89 888.116 1039.17 881.495 1059.16C880.133 1063.43 879.081 1067.39 879.205 1067.88V1067.82Z" fill="#446A71"/>
<path d="M572.895 983.29C639.54 1077.47 691.52 1122.96 744.367 1133.66C770.295 1138.98 792.139 1135.27 815.901 1121.59C841.706 1106.8 856.99 1087.93 866.396 1059.77C872.894 1040.41 872.77 1014.17 866.148 993.748C861.879 980.938 853.03 965.097 844.428 955.381C825.802 934.218 799.936 921.285 770.914 918.686C760.456 917.696 742.201 919.614 732.052 922.708C697.275 933.29 682.919 936.693 663.736 938.735C645.79 940.592 630.382 939.664 614.355 936.075C584.404 929.268 559.776 914.23 530.877 884.899C523.452 877.473 520.481 875.122 518.377 874.812C514.169 874.317 510.457 876.978 509.467 881.372L508.6 885.085L535.518 926.916C550.308 949.75 567.14 975.245 572.895 983.352V983.29Z" fill="#446A71"/>
<path d="M908.538 2063.48C908.538 2098.88 897.894 2128.89 876.669 2153.58C855.444 2178.27 831.31 2190.59 804.268 2190.59C784.342 2190.59 770.481 2184.65 762.622 2172.77C754.763 2160.89 750.803 2145.6 750.803 2126.85C750.803 2114.1 752.969 2101.29 757.239 2088.55C761.57 2075.8 771.842 2059.9 788.179 2040.9C777.783 2040.9 768.748 2035.33 761.013 2024.13C753.278 2012.93 749.442 1997.33 749.442 1977.35C749.442 1938.55 762.313 1907.54 787.993 1884.22C813.674 1860.95 840.964 1849.31 869.738 1849.31H908.476V2063.42L908.538 2063.48ZM866.644 1983.04C845.233 2004.14 824.008 2025.24 802.907 2046.28C785.951 2070.04 777.535 2093.81 777.535 2117.57C777.535 2134.52 781.248 2146.53 788.674 2153.65C796.1 2160.76 806.186 2164.35 818.996 2164.35C833.228 2164.35 844.738 2157.79 853.526 2144.73C862.313 2131.68 866.644 2116.08 866.644 2097.95V1982.98V1983.04ZM792.263 1943.81C792.263 1958.35 794.615 1969.05 799.38 1975.86C804.144 1982.67 810.642 1986.13 818.996 1986.13C826.112 1986.13 833.785 1983.97 841.954 1979.7C850.122 1975.37 858.352 1969.55 866.706 1962.12V1862.74C844.429 1862.74 826.483 1870.97 812.808 1887.5C799.132 1903.96 792.325 1922.77 792.325 1943.87L792.263 1943.81Z" fill="#456A71"/>
<path d="M1091.21 1850.24V2015.09C1091.52 2018.93 1093.44 2020.91 1097.03 2020.91C1099.69 2020.91 1102.91 2019.92 1106.62 2018C1110.33 2016.08 1116.33 2012.74 1124.69 2007.98C1120.85 2016.02 1114.35 2023.88 1105.32 2031.62C1096.28 2039.35 1087.56 2043.19 1079.27 2043.19C1074.5 2043.19 1068.38 2039.91 1060.76 2033.41C1053.22 2026.85 1049.38 2018.13 1049.38 2007.11V1983.04C1031.25 2001.17 1015.96 2015.71 1003.46 2026.73C990.963 2037.74 980.134 2043.19 970.914 2043.19C960.827 2043.19 951.854 2037.25 943.934 2025.37C936.013 2013.48 932.114 1997.58 932.114 1977.72C932.114 1937.31 943.253 1906 965.53 1883.72C987.807 1861.44 1016.77 1850.3 1052.41 1850.3H1091.15L1091.21 1850.24ZM974.936 1943.81C974.936 1958.35 977.287 1969.05 982.052 1975.86C986.817 1982.67 993.314 1986.13 1001.67 1986.13C1008.78 1986.13 1016.46 1983.97 1024.63 1979.7C1032.79 1975.37 1041.02 1969.55 1049.38 1962.12V1862.74C1027.1 1862.74 1009.16 1870.97 995.48 1887.5C981.805 1903.96 974.998 1922.77 974.998 1943.87L974.936 1943.81Z" fill="#456A71"/>
<path d="M1248.94 2043.19V1913.48C1248.94 1906.68 1248.2 1901.29 1246.72 1897.27C1245.23 1893.25 1241.02 1891.27 1234.15 1891.27C1226.67 1891.27 1216.83 1899.07 1204.51 1914.66C1192.26 1930.25 1186.14 1939.41 1186.14 1942.07V2017.51C1184.65 2023.7 1179.58 2029.57 1170.91 2035.02C1162.25 2040.46 1153.65 2043.25 1145.11 2043.25V1891.27C1145.11 1886.57 1143.31 1884.15 1139.79 1884.15C1135.33 1884.15 1126.85 1888.18 1114.42 1896.16C1125.62 1881.93 1135.89 1870.66 1145.17 1862.5C1154.45 1854.33 1161.75 1850.24 1167.08 1850.24C1175.31 1850.24 1180.57 1854.76 1182.79 1863.86C1185.02 1872.89 1186.14 1886.94 1186.14 1905.94V1922.4C1197.71 1904.26 1209.96 1887.74 1222.89 1872.71C1235.83 1857.67 1249.38 1850.18 1263.67 1850.18C1274.69 1850.18 1281.93 1853.89 1285.52 1861.32C1289.11 1868.75 1290.84 1879.88 1290.84 1894.74V1921.03C1301.85 1905.32 1314.11 1889.54 1327.6 1873.82C1341.09 1858.1 1354.7 1850.18 1368.37 1850.18C1377.9 1850.18 1384.65 1852.72 1388.67 1857.73C1392.69 1862.74 1394.67 1871.34 1394.67 1883.53V2011.5C1394.67 2018.62 1396.9 2022.15 1401.36 2022.15C1406.43 2022.15 1414.1 2017.57 1424.5 2008.35C1420.91 2018 1415.16 2026.23 1407.11 2032.98C1399.07 2039.72 1389.91 2043.06 1379.51 2043.06C1362.31 2043.06 1353.65 2031.99 1353.65 2009.77V1913.36C1353.65 1905.69 1352.47 1900.06 1350.06 1896.47C1347.71 1892.94 1343.81 1891.15 1338.49 1891.15C1331.68 1891.15 1322.03 1899 1309.53 1914.78C1297.03 1930.5 1290.84 1939.6 1290.84 1941.95V2017.38C1289.35 2023.57 1284.4 2029.45 1275.92 2034.9C1267.45 2040.34 1258.47 2043.13 1248.94 2043.13V2043.19Z" fill="#456A71"/>
<path d="M1543.87 1848.45C1555.44 1848.45 1565.03 1850.55 1572.58 1854.7C1580.13 1858.84 1590.47 1867.51 1603.52 1880.63L1495.23 1989.23C1501.17 1999 1508.54 2005.32 1517.26 2008.16C1526.05 2011.01 1535.89 2012.37 1546.9 2012.37C1557.92 2012.37 1568.19 2009.77 1577.84 2004.64C1587.5 1999.5 1596.16 1994.05 1603.89 1988.3C1592.01 2006.55 1578.96 2020.29 1564.66 2029.39C1550.43 2038.55 1534.09 2043.06 1515.65 2043.06C1489.23 2043.06 1470.48 2034.59 1459.53 2017.63C1448.51 2000.67 1443.07 1982.36 1443.07 1962.68C1443.07 1928.15 1452.72 1900.49 1472.03 1879.64C1491.33 1858.78 1515.22 1848.39 1543.75 1848.39L1543.87 1848.45ZM1491.27 1979.02C1501.67 1968.87 1512.06 1958.72 1522.46 1948.57C1538.18 1931.55 1546.1 1918.74 1546.1 1910.08C1546.1 1899.62 1543.56 1891.52 1538.55 1885.7C1533.47 1879.88 1526.79 1876.97 1518.5 1876.97C1508.1 1876.97 1499.93 1883.16 1493.99 1895.54C1488.05 1907.92 1485.08 1922.64 1485.08 1939.6C1485.08 1946.78 1485.52 1953.52 1486.44 1959.96C1487.31 1966.39 1488.98 1972.7 1491.33 1978.95L1491.27 1979.02Z" fill="#456A71"/>
<path d="M1750.18 1846.59C1745.11 1854.64 1741.39 1862.68 1739.04 1870.72C1736.69 1878.77 1734.59 1886.07 1732.79 1892.63C1723.26 1881.86 1714.35 1874.31 1706.06 1870.04C1697.77 1865.71 1688.05 1863.61 1677.1 1863.61C1666.15 1863.61 1658.41 1865.53 1653.96 1869.43C1649.5 1873.32 1647.27 1878.52 1647.27 1885.08C1647.27 1892.57 1658.41 1900.98 1680.69 1910.39C1702.97 1919.8 1720.54 1929.14 1733.47 1938.42C1746.41 1947.7 1752.84 1962.49 1752.84 1982.79C1752.84 2006.68 1745.48 2022.52 1730.81 2030.32C1716.08 2038.11 1697.46 2041.95 1674.87 2041.95C1652.29 2041.95 1637.43 2037.74 1631.18 2029.26C1624.93 2020.79 1621.84 2000.06 1621.84 1967.14C1627.47 1982.61 1636.69 1996.53 1649.44 2009.03C1662.19 2021.53 1677.53 2027.72 1695.35 2027.72C1715.84 2027.72 1726.11 2018.43 1726.11 1999.93C1726.11 1990.96 1715.28 1981.55 1693.56 1971.71C1671.9 1961.88 1654.95 1952.28 1642.76 1943.06C1630.57 1933.78 1624.5 1918.25 1624.5 1896.47C1624.5 1877.66 1630.32 1864.66 1641.89 1857.48C1653.46 1850.3 1668.93 1846.72 1688.24 1846.72C1693.31 1846.72 1700.24 1847.77 1709.15 1849.87C1718.06 1851.97 1723.26 1853.03 1724.75 1853.03C1729.51 1853.03 1733.54 1852.66 1736.75 1851.91C1740.03 1851.17 1744.49 1849.44 1750.12 1846.72L1750.18 1846.59Z" fill="#456A71"/>
</svg>
