<?xml version="1.0" encoding="UTF-8"?>
<svg id="Layer_1" data-name="Layer 1" xmlns="http://www.w3.org/2000/svg" viewBox="0 0 1824.4 1405.25">
  <defs>
    <style>
      .cls-1, .cls-2 {
        fill: #446a71;
      }

      .cls-2 {
        stroke: #bcb2aa;
        stroke-miterlimit: 10;
        stroke-width: 37.13px;
      }
    </style>
  </defs>
  <path class="cls-2" d="m1800.25,558.37c-3.46-1.24-118.25-8.48-253.89-16.03-144.06-7.98-268.32-13.98-372.53-17.95,85.83-137.56,145.73-232.67,179.46-285.15,36.88-57.24,81.99-121.66,135.33-193.25l-27.35-22.9c-81.25,38.86-150.74,65.78-208.35,80.75-57.68,14.98-116.4,22.4-176.12,22.4s-121.78-7.8-180.63-23.33c-58.85-15.53-125.93-42.14-201.24-79.83l-227.23,265.96,30.69,27.29,112.38-134.28c49.69,27.17,93.01,45.61,130.14,55.26,50.25,12.69,105.26,19,165.1,19,75.37,0,146.84-8.66,214.48-25.99,67.57-17.33,145.98-48.08,235.09-92.26-108.79,102.85-195.11,188.3-259.04,256.43-35.76,38.06-69.68,79.58-101.79,124.5-35.27-.62-66.34-.87-93.19-.68-17.95.12-53.03,1.17-53.71,1.67-.37.25.56,5.51,1.92,11.94,1.42,6.31,3.4,20.98,4.52,32.67,2.91,30.69,2.66,51.05-1.3,84.53-.99,8.91-1.61,16.21-1.42,16.21,1.36.25,21.35-.31,39.23-1.11,2.47-.12,5.07-.25,7.67-.31l-36.76,56c-236.32,1.18-393.5,2.72-554.39,5.2-85.83,1.3-107.3,4.64-210.27,31.99-21.47,5.63-47.28,12.32-57.36,14.67-10.21,2.47-19.18,4.77-19.93,5.14-3.9,1.98,1.49,3.71,20.36,6.56,11.26,1.73,40.1,6.5,64.17,10.71,72.4,12.62,116.83,18.32,150.99,19.37,12.19.37,141.46,1.11,203.34,1.11,102.6,0,207.42-.43,341.95-1.42-103.09,157.05-176.3,266.02-219.31,326.54-44.55,62.69-101.86,132.92-171.78,210.52l23.76,31.87c84.84-36.45,161.01-62.62,228.59-78.52,67.51-15.85,137.75-23.77,210.64-23.77s141.34,7.8,203.47,23.33,131.74,41.9,208.85,78.96l203.89-248.94-26.92-26.12-97.46,116.21c-53.77-27.16-102.91-46.53-147.4-58.04-44.55-11.51-92.76-17.27-144.74-17.27-158.35,0-326.23,38.25-503.65,114.61,162.62-153.03,266.77-254.33,312.5-303.96,41.71-45.3,79.58-94.31,113.67-147.09,26.67-.25,54.39-.49,83.41-.8,77.48-.74,78.9-.68,84.1,1.98,2.97,1.61,8.23,4.76,11.88,7.05l6.56,4.27,14.85-3.96c16.4-4.33,28.96-6.93,45.85-9.28,10.22-1.48,11.21-1.36,12.32.68.68,1.3,5.2,8.6,10.02,16.27,10.03,15.78,12.26,20.61,13.25,27.97.37,2.85,1.05,5.51,1.42,5.82.93.87.87,20.85-.12,32.24-.68,7.73-3.28,22.34-4.21,23.39-.13.12-.81-.43-1.3-1.42-1.67-2.85-10.95-5.32-17.14-4.64-5.39.62-11.08,3.28-13.8,6.37-5.57,6.19-6.44,20.05-1.8,31.68,8.54,21.78,28.47,31.81,47.84,24.01,8.35-3.4,12.62-7.05,16.4-14.73,6.06-12.01,6.37-30.26,1.05-71.47-1.67-12.81-2.79-23.64-2.42-24.01.25-.43.44-6.44.31-13.43-.62-31.06.07-41.34,2.91-43.01,1.05-.56,3.71-.56,5.94,0,2.23.56,4.95.56,5.94,0,.93-.62,4.64-1.61,8.17-2.29,5.39-1.11,6.75-.99,9.04.93,3.4,2.91,10.27,2.78,16.7-.19,5.2-2.41,13.06-2.66,61.51-2.23,24.69.19,84.35,2.04,93.82,2.85,2.35.25,6.8,1.61,9.83,3.09,11.27,5.45,18.88,5.88,21.85,1.18,1.42-2.04,2.6-2.29,8.6-1.98,4.46.25,7.61.99,8.97,2.17,2.29,2.04,4.21,2.04,7.43-.12,5.13-3.53,17.39-1.42,35.46,6,22.83,9.41,35.95,12.13,56.25,11.45,18.25-.62,32.73-8.42,41.77-22.71,15.22-23.89,13.92-64.36-2.85-87.07-11.94-16.21-26.11-22.52-48.14-21.22-14.92.87-28.59,4.15-47.65,11.57-12.07,4.7-16.59,5.88-24.32,6.5-7.68.56-9.9.31-11.7-1.3-1.92-1.73-2.91-1.79-5.44-.49-1.67.8-6.62,1.79-10.89,2.04-6.63.43-8.05.25-9.41-1.67-3.53-4.64-12-4.27-21.72,1.05-4.21,2.35-8.35,2.91-34.78,4.21-32.36,1.61-46.72,2.04-80.13,2.23-35.65.37-42.82.18-43.88-.8-1.79-1.61-11.38-4.08-14.29-3.78-1.55.25-3.96,1.24-5.45,2.35-2.04,1.49-4.27,1.8-9.4,1.11-3.65-.49-7.61-1.61-8.6-2.54-1.43-1.42-2.91-1.36-5.94-.37-2.29.74-5.26.99-6.63.56-2.41-.68-2.59-1.55-3.34-11.14-.37-5.69-.62-17.88-.43-26.98.25-9.22.12-16.89-.19-17.2-.31-.31.68-10.95,2.17-23.64.37-3.16.68-6.13,1.05-8.97,127.6-13.18,275.62-29.64,438.49-48.89,29.58-3.47,55.45-7.12,57.36-7.92,2.85-1.3,3.65-2.17,4.34-5.14.92-4.52-.69-7.49-5.08-9.1l-.25.25Zm-522.83,104.21c-.37.43-.87,2.91-1.24,5.69-.18,2.72-1.3,6.93-2.41,9.41-1.55,3.65-14.17,24.57-22.22,36.94-1.54,2.47-2.16,2.41-15.4.43-16.09-2.54-29.52-5.45-44.87-9.47-10.46-2.85-11.2-2.85-14.42-.68-1.91,1.24-7.98,4.95-13.55,8.11l-10.21,5.88-100.24.43c15.47-23.33,30.01-46.53,43.62-69.62,53.53-4.77,113.68-10.52,179.83-17.27,1.17,12.69,1.92,29.33,1.17,30.2l-.06-.06Z"/>
  <path class="cls-2" d="m553.54,642.34c.25,1.3,32.05,4.15,98.89,8.66,70.17,4.77,111.88,8.04,144.68,11.51,29.33,3.09,28.22,3.09,28.71-.43.12-1.55.99-8.66,1.98-15.84,5.01-40.16,3.59-81.56-4.21-114.54-1.18-5.01-2.23-9.22-2.41-9.47-.19-.25-6.19.43-13.31,1.67-40.59,6.68-79.27,12.01-155.32,21.47-63.92,7.92-100.49,13.06-100.62,14.23,0,.25,1.05,3.22,2.48,6.68,7.36,19.12,8.04,47.4,1.42,67.39-1.36,4.27-2.41,8.23-2.29,8.72v-.06Z"/>
  <path class="cls-2" d="m247.29,557.82c66.65,94.18,118.63,139.67,171.47,150.37,25.93,5.32,47.77,1.61,71.53-12.07,25.8-14.79,41.09-33.66,50.49-61.82,6.5-19.37,6.37-45.61-.25-66.03-4.27-12.81-13.12-28.65-21.72-38.37-18.63-21.16-44.49-34.1-73.52-36.7-10.46-.99-28.71.93-38.86,4.02-34.78,10.58-49.13,13.98-68.32,16.03-17.95,1.86-33.35.93-49.38-2.66-29.95-6.81-54.58-21.84-83.48-51.18-7.43-7.42-10.4-9.78-12.5-10.09-4.21-.49-7.92,2.17-8.91,6.56l-.87,3.71,26.92,41.83c14.79,22.83,31.62,48.33,37.38,56.44v-.06Z"/>
  <path class="cls-1" d="m1799.26,559.24c-3.46-1.24-118.25-8.48-253.89-16.03-144.06-7.98-268.32-13.98-372.53-17.95,85.83-137.56,145.73-232.67,179.46-285.15,36.88-57.24,81.99-121.66,135.33-193.25l-27.35-22.9c-81.25,38.86-150.74,65.78-208.35,80.75-57.68,14.98-116.4,22.4-176.12,22.4s-121.78-7.8-180.63-23.33c-58.85-15.53-125.93-42.14-201.24-79.83l-227.23,265.96,30.69,27.29,112.38-134.28c49.69,27.17,93.01,45.61,130.14,55.26,50.25,12.68,105.26,19,165.1,19,75.37,0,146.84-8.66,214.48-25.99,67.57-17.33,145.98-48.08,235.09-92.26-108.79,102.85-195.11,188.3-259.04,256.43-35.76,38.06-69.68,79.58-101.79,124.51-35.27-.62-66.34-.87-93.19-.68-17.95.12-53.03,1.18-53.71,1.67-.37.25.56,5.51,1.92,11.94,1.42,6.31,3.4,20.98,4.52,32.67,2.91,30.69,2.66,51.05-1.3,84.53-.99,8.91-1.61,16.21-1.42,16.21,1.36.25,21.35-.31,39.23-1.11,2.48-.12,5.07-.25,7.67-.31l-36.76,56c-236.32,1.17-393.5,2.72-554.39,5.2-85.83,1.3-107.3,4.64-210.27,31.99-21.47,5.63-47.28,12.31-57.36,14.67-10.21,2.47-19.18,4.77-19.93,5.14-3.9,1.98,1.48,3.71,20.36,6.56,11.26,1.73,40.1,6.5,64.17,10.71,72.4,12.62,116.83,18.32,150.99,19.37,12.19.37,141.46,1.11,203.34,1.11,102.6,0,207.43-.43,341.95-1.42-103.09,157.05-176.3,266.03-219.31,326.54-44.55,62.69-101.86,132.92-171.78,210.52l23.76,31.87c84.84-36.45,161.02-62.62,228.59-78.53,67.51-15.84,137.75-23.76,210.64-23.76s141.34,7.8,203.47,23.33c62.12,15.53,131.74,41.89,208.84,78.96l203.9-248.95-26.92-26.11-97.46,116.21c-53.77-27.17-102.91-46.53-147.4-58.04-44.55-11.51-92.76-17.27-144.74-17.27-158.35,0-326.23,38.24-503.65,114.6,162.62-153.03,266.77-254.33,312.5-303.96,41.71-45.3,79.58-94.31,113.68-147.09,26.67-.25,54.39-.49,83.41-.8,77.48-.74,78.9-.68,84.1,1.98,2.97,1.61,8.23,4.76,11.88,7.05l6.56,4.27,14.85-3.96c16.4-4.33,28.96-6.93,45.85-9.28,10.21-1.48,11.2-1.36,12.32.68.68,1.3,5.2,8.6,10.02,16.28,10.03,15.78,12.26,20.61,13.25,27.97.37,2.85,1.05,5.51,1.42,5.82.93.87.87,20.85-.12,32.24-.69,7.73-3.28,22.34-4.21,23.39-.13.12-.81-.43-1.3-1.42-1.67-2.85-10.95-5.32-17.14-4.64-5.39.62-11.08,3.28-13.8,6.37-5.57,6.19-6.44,20.05-1.8,31.68,8.54,21.78,28.47,31.81,47.84,24.01,8.35-3.4,12.62-7.05,16.4-14.73,6.06-12.01,6.37-30.26,1.05-71.47-1.67-12.81-2.79-23.64-2.42-24.01.25-.43.44-6.43.31-13.43-.62-31.06.07-41.34,2.91-43.01,1.05-.56,3.71-.56,5.94,0,2.23.56,4.95.56,5.94,0,.93-.62,4.64-1.61,8.17-2.29,5.38-1.11,6.75-.99,9.04.93,3.4,2.91,10.27,2.78,16.7-.19,5.2-2.41,13.06-2.66,61.51-2.23,24.69.19,84.35,2.04,93.81,2.85,2.36.25,6.81,1.61,9.84,3.09,11.27,5.45,18.88,5.88,21.85,1.18,1.42-2.04,2.6-2.29,8.6-1.98,4.45.25,7.61.99,8.97,2.17,2.29,2.04,4.21,2.04,7.43-.12,5.13-3.53,17.39-1.42,35.46,6,22.83,9.41,35.95,12.13,56.25,11.45,18.25-.62,32.73-8.42,41.77-22.71,15.22-23.89,13.92-64.36-2.85-87.07-11.94-16.21-26.12-22.53-48.14-21.23-14.92.87-28.59,4.15-47.65,11.57-12.07,4.7-16.59,5.88-24.32,6.5-7.68.56-9.9.31-11.7-1.3-1.92-1.73-2.91-1.79-5.44-.5-1.67.8-6.62,1.79-10.89,2.04-6.63.43-8.05.25-9.41-1.67-3.53-4.64-12.01-4.27-21.72,1.05-4.21,2.35-8.35,2.91-34.78,4.21-32.36,1.61-46.72,2.04-80.13,2.23-35.65.37-42.83.19-43.88-.8-1.79-1.61-11.38-4.08-14.29-3.78-1.55.25-3.96,1.24-5.45,2.35-2.04,1.49-4.27,1.79-9.4,1.11-3.65-.5-7.61-1.61-8.6-2.54-1.43-1.42-2.91-1.36-5.95-.37-2.28.74-5.25.99-6.62.56-2.41-.68-2.6-1.55-3.34-11.14-.37-5.69-.62-17.88-.43-26.98.25-9.22.12-16.89-.19-17.2-.31-.31.68-10.95,2.17-23.64.37-3.16.68-6.13,1.05-8.97,127.6-13.18,275.62-29.64,438.49-48.89,29.58-3.47,55.45-7.12,57.36-7.92,2.85-1.3,3.65-2.17,4.34-5.14.92-4.52-.69-7.49-5.08-9.1l-.25.25Zm-522.83,104.21c-.37.43-.87,2.91-1.24,5.69-.18,2.72-1.3,6.93-2.41,9.41-1.55,3.65-14.17,24.57-22.22,36.94-1.54,2.47-2.16,2.41-15.4.43-16.09-2.54-29.52-5.45-44.87-9.47-10.46-2.85-11.2-2.85-14.42-.68-1.91,1.24-7.98,4.95-13.55,8.11l-10.21,5.88-100.25.43c15.48-23.33,30.02-46.54,43.63-69.62,53.53-4.77,113.68-10.52,179.83-17.27,1.17,12.68,1.92,29.33,1.17,30.2l-.06-.06Z"/>
  <path class="cls-1" d="m552.55,643.27c.25,1.3,32.05,4.15,98.89,8.66,70.17,4.76,111.88,8.04,144.68,11.51,29.33,3.09,28.22,3.09,28.71-.43.12-1.55.99-8.66,1.98-15.84,5.01-40.16,3.59-81.56-4.21-114.54-1.18-5.01-2.23-9.22-2.41-9.47-.18-.25-6.19.43-13.3,1.67-40.59,6.68-79.27,12.01-155.32,21.47-63.92,7.92-100.49,13.06-100.62,14.23,0,.25,1.05,3.22,2.48,6.68,7.36,19.12,8.04,47.4,1.42,67.39-1.36,4.27-2.41,8.23-2.29,8.73v-.06Z"/>
  <path class="cls-1" d="m246.24,558.68c66.65,94.18,118.62,139.67,171.47,150.37,25.93,5.32,47.77,1.61,71.53-12.07,25.81-14.79,41.09-33.66,50.5-61.82,6.5-19.37,6.37-45.61-.25-66.03-4.27-12.81-13.12-28.65-21.72-38.37-18.63-21.16-44.49-34.1-73.51-36.7-10.46-.99-28.71.93-38.86,4.02-34.78,10.58-49.13,13.99-68.32,16.03-17.95,1.86-33.35.93-49.38-2.66-29.95-6.81-54.58-21.84-83.48-51.18-7.43-7.42-10.4-9.78-12.5-10.09-4.21-.49-7.92,2.17-8.91,6.56l-.87,3.71,26.92,41.83c14.79,22.83,31.62,48.33,37.38,56.44v-.06Z"/>
</svg>